<svg width="24" height="17" viewBox="0 0 24 17" fill="none" xmlns="http://www.w3.org/2000/svg">
<path fill-rule="evenodd" clip-rule="evenodd" d="M21.3903 0.513974C22.4182 0.790829 23.2288 1.60125 23.5055 2.62938C24.0197 4.5073 23.9999 8.42171 23.9999 8.42171C23.9999 8.42171 23.9999 12.3162 23.5057 14.1943C23.2288 15.2222 22.4184 16.0328 21.3903 16.3095C19.5122 16.8039 12 16.8039 12 16.8039C12 16.8039 4.50731 16.8039 2.60961 16.2899C1.58148 16.013 0.771054 15.2024 0.4942 14.1745C0 12.3162 0 8.40194 0 8.40194C0 8.40194 0 4.5073 0.4942 2.62938C0.770871 1.60143 1.60125 0.771053 2.60943 0.494382C4.48753 0 11.9998 0 11.9998 0C11.9998 0 19.5122 0 21.3903 0.513974ZM15.8549 8.40197L9.60788 12V4.80394L15.8549 8.40197Z" fill="black"/>
</svg>
